HIERARCHY
ROOT Hips
{
  OFFSET 50.2771 96.904 18.2895
  CHANNELS 6 Xposition Yposition Zposition Zrotation Xrotation Yrotation
  JOINT spine
  {
    OFFSET 0 7.96568 0.458067
    CHANNELS 3 Zrotation Xrotation Yrotation
    JOINT spine1
    {
      OFFSET 0 10.2431 0
      CHANNELS 3 Zrotation Xrotation Yrotation
      JOINT spine2
      {
        OFFSET 0 9.81475 0
        CHANNELS 3 Zrotation Xrotation Yrotation
        JOINT Neck
        {
          OFFSET 0 25.1986 1.20138
          CHANNELS 3 Zrotation Xrotation Yrotation
          JOINT Head
          {
            OFFSET 0 7.61315 0
            CHANNELS 3 Zrotation Xrotation Yrotation
            End Site
            {
              OFFSET 0 18.4281 -6.07733
            }
          }
        }
        JOINT RightShoulder
        {
          OFFSET -4.1327 10.5992 -0.575451
          CHANNELS 3 Zrotation Xrotation Yrotation
          JOINT RightArm
          {
            OFFSET 0 13.9018 0
            CHANNELS 3 Zrotation Xrotation Yrotation
            JOINT RightArmRoll
            {
              OFFSET 0 7.01788 0
              CHANNELS 3 Zrotation Xrotation Yrotation
              JOINT RightForeArm
              {
                OFFSET 0 20.4406 0
                CHANNELS 3 Zrotation Xrotation Yrotation
                JOINT RightForeArmRoll
                {
                  OFFSET 0 7.87516 0
                  CHANNELS 3 Zrotation Xrotation Yrotation
                  JOINT RightHand
                  {
                    OFFSET 0 15.8037 0
                    CHANNELS 3 Zrotation Xrotation Yrotation
                    End Site
                    {
                      OFFSET 0 0 0
                    }
                  }
                }
              }
            }
          }
        }
        JOINT LeftShoulder
        {
          OFFSET 4.1327 10.5992 -0.575451
          CHANNELS 3 Zrotation Xrotation Yrotation
          JOINT LeftArm
          {
            OFFSET 0 13.9018 0
            CHANNELS 3 Zrotation Xrotation Yrotation
            JOINT LeftArmRoll
            {
              OFFSET 0 7.01789 0
              CHANNELS 3 Zrotation Xrotation Yrotation
              JOINT LeftForeArm
              {
                OFFSET 0 20.4406 0
                CHANNELS 3 Zrotation Xrotation Yrotation
                JOINT LeftForeArmRoll
                {
                  OFFSET 0 7.87515 0
                  CHANNELS 3 Zrotation Xrotation Yrotation
                  JOINT LeftHand
                  {
                    OFFSET 0 15.8037 0
                    CHANNELS 3 Zrotation Xrotation Yrotation
                    End Site
                    {
                      OFFSET 0 0 0
                    }
                  }
                }
              }
            }
          }
        }
      }
    }
  }
  JOINT RightUpLeg
  {
    OFFSET -7.06048 -1.2947 -1.0861
    CHANNELS 3 Zrotation Xrotation Yrotation
    JOINT RightUpLegRoll
    {
      OFFSET 0 18.5308 0
      CHANNELS 3 Zrotation Xrotation Yrotation
      JOINT RightLeg
      {
        OFFSET 0 -22.9476 0
        CHANNELS 3 Zrotation Xrotation Yrotation
        JOINT RightLegRoll
        {
          OFFSET 0 23.0226 0
          CHANNELS 3 Zrotation Xrotation Yrotation
          JOINT RightFoot
          {
            OFFSET 0 19.1625 0
            CHANNELS 3 Zrotation Xrotation Yrotation
            JOINT RightToeBase
            {
              OFFSET 0 16.0188 0
              CHANNELS 3 Zrotation Xrotation Yrotation
              End Site
              {
                OFFSET 0.00678979 7.75782 -0.894207
              }
            }
          }
        }
      }
    }
  }
  JOINT LeftUpLeg
  {
    OFFSET 7.06048 -1.2947 -1.0861
    CHANNELS 3 Zrotation Xrotation Yrotation
    JOINT LeftUpLegRoll
    {
      OFFSET 0 18.5309 0
      CHANNELS 3 Zrotation Xrotation Yrotation
      JOINT LeftLeg
      {
        OFFSET 0 22.9475 0
        CHANNELS 3 Zrotation Xrotation Yrotation
        JOINT LeftLegRoll
        {
          OFFSET 0 23.2355 0
          CHANNELS 3 Zrotation Xrotation Yrotation
          JOINT LeftFoot
          {
            OFFSET 0 18.9496 0
            CHANNELS 3 Zrotation Xrotation Yrotation
            JOINT LeftToeBase
            {
              OFFSET 0 16.0188 0
              CHANNELS 3 Zrotation Xrotation Yrotation
              End Site
              {
                OFFSET -0.0304289 7.75782 -0.894206
              }
            }
          }
        }
      }
    }
  }
}
MOTION
Frames: 11
Frame Time: 0.00208333
50.713 96.8306 14.0265 0.86354 -5.90391 1.87378 0.0533539 -0.37221 -0.244234 0.100817 3.2878 -0.506255 0.107036 4.93286 -0.508439 -4.38729 5.82962 1.76764 0.697785 3.93145 0.923185 69.2869 -4.08583 -3.28379 95.5296 10.9354 -37.9664 1.37248e-006 1.18238e-006 1.06696e-005 -157.602 85.8634 147.553 -7.17812e-006 6.33375e-006 -3 8.03005 -4.95123 0.697599 -62.6296 -1.56129 1.37003 -104.426 12.8291 26.5736 4.71186e-006 8.20737e-007 8.21898e-006 -38.6125 82.6153 41.4358 4.39329e-006 -3.9795e-006 3.00001 -8.02984 -4.95106 -0.697558 172.195 -6.33283 5.65831 180 7.01488e-015 178.69 178.806 5.01717 179.656 -4.58679e-006 -4.49276e-006 0.0803196 -19.1834 68.2982 19.7952 8.13064 25.233 -3.48524 -173.204 -3.9468 -2.65699 4.54188e-006 -4.6773e-006 -1.25904 -1.88262 -6.186 0.0334175 -1.6134e-006 -4.95199e-006 -0.0935069 19.2177 68.4101 -19.8872 -8.12347 25.2334 3.48218 
50.7052 96.8289 14.0357 0.862835 -5.90565 1.86513 0.0546494 -0.370121 -0.245526 0.103295 3.28985 -0.507557 0.109533 4.9349 -0.509785 -4.41153 5.8377 1.7716 0.704155 3.90189 0.922423 69.2753 -4.08239 -3.28127 95.41 10.6555 -37.9673 1.37248e-006 1.18238e-006 1.06696e-005 -157.229 85.7857 147.108 -7.17812e-006 6.33375e-006 -3 8.03005 -4.95123 0.697599 -62.6368 -1.56243 1.37142 -104.363 12.5994 26.5123 4.71186e-006 8.20737e-007 8.21898e-006 -38.4734 82.5871 41.2904 4.39329e-006 -3.9795e-006 3.00001 -8.02984 -4.95106 -0.697558 172.191 -6.34258 5.662 180 7.01487e-015 178.69 178.803 5.01358 179.657 -4.58679e-006 -4.49276e-006 0.0803653 -19.1855 68.3006 19.7974 8.13064 25.233 -3.48524 -173.205 -3.96162 -2.65814 4.54188e-006 -4.6773e-006 -1.25903 -1.88408 -6.17858 0.0335047 -1.6134e-006 -4.95199e-006 -0.0935069 19.2154 68.4074 -19.8847 -8.12347 25.2334 3.48218 
50.7116 96.8287 14.0508 0.862098 -5.90766 1.85665 0.0559479 -0.367918 -0.246877 0.10574 3.29205 -0.508913 0.111998 4.9371 -0.511186 -4.43547 5.845 1.77543 0.710199 3.8719 0.921612 69.264 -4.07891 -3.27877 95.2893 10.3763 -37.9699 1.37248e-006 1.18238e-006 1.06696e-005 -156.874 85.7082 146.683 -7.17812e-006 6.33375e-006 -3 8.03005 -4.95123 0.697599 -62.6437 -1.56353 1.37277 -104.301 12.3689 26.4533 4.71186e-006 8.20737e-007 8.21898e-006 -38.3344 82.5569 41.144 4.39329e-006 -3.9795e-006 3.00001 -8.02984 -4.95106 -0.697558 172.188 -6.3527 5.66568 180 7.01487e-015 178.689 178.8 5.00998 179.658 -4.58679e-006 -4.49276e-006 0.0804177 -19.1877 68.3031 19.7998 8.13064 25.233 -3.48524 -173.206 -3.97696 -2.6594 4.54188e-006 -4.6773e-006 -1.25901 -1.88561 -6.17075 0.0335984 -1.6134e-006 -4.95199e-006 -0.0935069 19.2128 68.4046 -19.882 -8.12347 25.2334 3.48218 
50.725 96.8296 14.0603 0.861337 -5.90987 1.84828 0.0572487 -0.365635 -0.24827 0.108161 3.29436 -0.510307 0.11444 4.93941 -0.512625 -4.4592 5.85177 1.77918 0.716014 3.84162 0.920766 69.2531 -4.07539 -3.27627 95.1677 10.0975 -37.9739 1.37248e-006 1.18238e-006 1.06696e-005 -156.535 85.6307 146.274 -7.17812e-006 6.33375e-006 -3 8.03005 -4.95123 0.697599 -62.6505 -1.5646 1.37408 -104.238 12.138 26.3961 4.71186e-006 8.20737e-007 8.21898e-006 -38.1956 82.5253 40.9973 4.39329e-006 -3.9795e-006 3.00001 -8.02984 -4.95106 -0.697558 172.185 -6.36309 5.66936 180 7.01487e-015 178.689 178.798 5.00638 179.659 -4.58679e-006 -4.49276e-006 0.0804747 -19.1899 68.3056 19.8022 8.13064 25.233 -3.48524 -173.206 -3.99267 -2.66072 4.54188e-006 -4.6773e-006 -1.25899 -1.88718 -6.16263 0.0336965 -1.6134e-006 -4.95199e-006 -0.0935069 19.2102 68.4016 -19.8792 -8.12347 25.2334 3.48218 
50.7137 96.8622 14.0553 0.860562 -5.91219 1.83997 0.0585507 -0.363307 -0.249686 0.11057 3.29674 -0.511723 0.116869 4.94179 -0.514085 -4.48281 5.85824 1.78287 0.721697 3.81117 0.919901 69.2423 -4.07186 -3.27377 95.0457 9.81919 -37.9793 1.37248e-006 1.18238e-006 1.06696e-005 -156.212 85.5533 145.88 -7.17812e-006 6.33375e-006 -3 8.03005 -4.95123 0.697599 -62.6573 -1.56565 1.37537 -104.176 11.9066 26.3402 4.71186e-006 8.20737e-007 8.21898e-006 -38.0577 82.493 40.851 4.39329e-006 -3.9795e-006 3.00001 -8.02984 -4.95106 -0.697558 172.182 -6.37363 5.67302 180 7.01487e-015 178.688 178.795 5.0028 179.66 -4.58679e-006 -4.49276e-006 0.0805344 -19.1922 68.3083 19.8047 8.13064 25.233 -3.48524 -173.207 -4.00857 -2.66208 4.54188e-006 -4.6773e-006 -1.25897 -1.88878 -6.15434 0.0337972 -1.6134e-006 -4.95199e-006 -0.0935069 19.2076 68.3986 -19.8763 -8.12347 25.2334 3.48218 
50.7178 96.8567 14.0657 0.859784 -5.91454 1.83167 0.0598532 -0.360967 -0.251109 0.112975 3.29913 -0.513144 0.119295 4.94418 -0.51555 -4.50639 5.86463 1.78655 0.727347 3.78068 0.919031 69.2315 -4.06832 -3.27128 94.9235 9.54107 -37.9858 1.37248e-006 1.18238e-006 1.06696e-005 -155.902 85.4756 145.499 -7.17812e-006 6.33375e-006 -3 8.03005 -4.95123 0.697599 -62.664 -1.56669 1.37666 -104.114 11.675 26.2849 4.71186e-006 8.20737e-007 8.21898e-006 -37.9209 82.4604 40.7058 4.39329e-006 -3.9795e-006 3.00001 -8.02984 -4.95106 -0.697558 172.179 -6.38421 5.67669 180 7.01487e-015 178.688 178.792 4.99918 179.661 -4.58679e-006 -4.49276e-006 0.0805947 -19.1945 68.3109 19.8072 8.13064 25.233 -3.48524 -173.208 -4.02453 -2.66345 4.54188e-006 -4.6773e-006 -1.25895 -1.89039 -6.14602 0.0338986 -1.6134e-006 -4.95199e-006 -0.0935069 19.2049 68.3956 -19.8734 -8.12347 25.2334 3.48218 
50.7181 96.8297 14.0944 0.859012 -5.91683 1.82335 0.0611552 -0.35865 -0.252519 0.115387 3.30149 -0.514554 0.121727 4.94653 -0.517005 -4.53004 5.87117 1.79026 0.733062 3.75027 0.918171 69.2207 -4.06479 -3.26878 94.8015 9.26302 -37.9931 1.37248e-006 1.18238e-006 1.06696e-005 -155.604 85.3978 145.131 -7.17812e-006 6.33375e-006 -3 8.03005 -4.95123 0.697599 -62.6707 -1.56774 1.37796 -104.053 11.4434 26.2299 4.71186e-006 8.20737e-007 8.21898e-006 -37.7855 82.4281 40.5622 4.39329e-006 -3.9795e-006 3.00001 -8.02984 -4.95106 -0.697558 172.176 -6.39471 5.68036 180 7.01487e-015 178.688 178.789 4.99558 179.661 -4.58679e-006 -4.49276e-006 0.0806537 -19.1968 68.3135 19.8097 8.13064 25.233 -3.48524 -173.209 -4.04039 -2.66481 4.54188e-006 -4.6773e-006 -1.25893 -1.89199 -6.13777 0.0339986 -1.6134e-006 -4.95199e-006 -0.0935069 19.2022 68.3926 -19.8706 -8.12347 25.2334 3.48218 
50.7301 96.8413 14.0988 0.858255 -5.91898 1.81494 0.0624558 -0.35639 -0.2539 0.117816 3.30377 -0.515937 0.124176 4.94881 -0.518433 -4.55383 5.87809 1.79403 0.738938 3.72007 0.917336 69.2096 -4.06128 -3.26628 94.6799 8.98489 -38.0013 1.37248e-006 1.18238e-006 1.06696e-005 -155.318 85.3194 144.775 -7.17812e-006 6.33375e-006 -3 8.03005 -4.95123 0.697599 -62.6776 -1.56882 1.37928 -103.993 11.2118 26.1745 4.71186e-006 8.20737e-007 8.21898e-006 -37.6519 82.3967 40.4208 4.39329e-006 -3.9795e-006 3.00001 -8.02984 -4.95106 -0.697558 172.173 -6.40502 5.68404 180 7.01487e-015 178.687 178.787 4.99196 179.662 -4.58679e-006 -4.49276e-006 0.0807094 -19.1991 68.3161 19.8121 8.13064 25.233 -3.48524 -173.21 -4.05599 -2.66611 4.54188e-006 -4.6773e-006 -1.25891 -1.89355 -6.12973 0.0340955 -1.6134e-006 -4.95199e-006 -0.0935069 19.1996 68.3897 -19.8678 -8.12347 25.2334 3.48218 
50.7307 96.8272 14.133 0.857523 -5.92091 1.80641 0.0637541 -0.354221 -0.255233 0.120271 3.30593 -0.517277 0.126651 4.95097 -0.519818 -4.57787 5.88563 1.7979 0.745074 3.69021 0.916541 69.1983 -4.05781 -3.26377 94.5592 8.70653 -38.0099 1.37248e-006 1.18238e-006 1.06696e-005 -155.042 85.2406 144.428 -7.17812e-006 6.33375e-006 -3 8.03005 -4.95123 0.697599 -62.6846 -1.56993 1.38063 -103.933 10.9804 26.1184 4.71186e-006 8.20737e-007 8.21898e-006 -37.5202 82.3668 40.2821 4.39329e-006 -3.9795e-006 3.00001 -8.02984 -4.95106 -0.697558 172.169 -6.41503 5.68773 180 7.01487e-015 178.687 178.784 4.98839 179.663 -4.58679e-006 -4.49276e-006 0.0807598 -19.2012 68.3186 19.8144 8.13064 25.233 -3.48524 -173.211 -4.07117 -2.66734 4.54188e-006 -4.6773e-006 -1.25889 -1.89506 -6.12202 0.0341872 -1.6134e-006 -4.95199e-006 -0.0935069 19.1972 68.3869 -19.8652 -8.12347 25.2334 3.48218 
50.7326 96.8297 14.14 0.856827 -5.92253 1.7977 0.0650492 -0.352178 -0.256501 0.122763 3.30791 -0.518557 0.129162 4.95295 -0.521143 -4.60224 5.894 1.80191 0.751568 3.66082 0.915802 69.1864 -4.05439 -3.26126 94.4397 8.42777 -38.0189 1.37248e-006 1.18238e-006 1.06696e-005 -154.776 85.1611 144.091 -7.17812e-006 6.33375e-006 -3 8.03005 -4.95123 0.697599 -62.6918 -1.5711 1.38204 -103.874 10.7494 26.0609 4.71186e-006 8.20737e-007 8.21898e-006 -37.3906 82.3389 40.1465 4.39329e-006 -3.9795e-006 3.00001 -8.02984 -4.95106 -0.697558 172.166 -6.42463 5.69142 180 7.01486e-015 178.686 178.781 4.98481 179.664 -4.58679e-006 -4.49276e-006 0.0808029 -19.2033 68.3209 19.8166 8.13064 25.233 -3.48524 -173.212 -4.08579 -2.66845 4.54188e-006 -4.6773e-006 -1.25888 -1.89649 -6.11477 0.0342719 -1.6134e-006 -4.95199e-006 -0.0935069 19.1949 68.3843 -19.8627 -8.12347 25.2334 3.48218 
50.7385 96.8244 14.1454 0.856175 -5.92376 1.78878 0.0663402 -0.350294 -0.257686 0.125301 3.30968 -0.519761 0.131718 4.95471 -0.522393 -4.62703 5.90345 1.8061 0.758517 3.63201 0.915131 69.174 -4.05103 -3.25873 94.3217 8.14845 -38.0281 1.37248e-006 1.18238e-006 1.06696e-005 -154.519 85.0809 143.761 -7.17812e-006 6.33375e-006 -3 8.03005 -4.95123 0.697599 -62.6993 -1.57233 1.38352 -103.817 10.5189 26.0015 4.71186e-006 8.20737e-007 8.21898e-006 -37.2632 82.3137 40.0144 4.39329e-006 -3.9795e-006 3.00001 -8.02984 -4.95106 -0.697558 172.163 -6.43369 5.69514 180 7.01486e-015 178.686 178.778 4.98124 179.665 -4.58679e-006 -4.49276e-006 0.0808367 -19.2052 68.3231 19.8187 8.13064 25.233 -3.48524 -173.213 -4.09969 -2.66943 4.54188e-006 -4.6773e-006 -1.25888 -1.89783 -6.1081 0.0343476 -1.6134e-006 -4.95199e-006 -0.0935069 19.1928 68.3819 -19.8605 -8.12347 25.2334 3.48218 
